<?xml version="1.0" encoding="utf-8"?>
<!-- Generator: Adobe Illustrator 25.2.0, SVG Export Plug-In . SVG Version: 6.00 Build 0)  -->
<svg version="1.1" baseProfile="tiny" id="Layer_1" xmlns="http://www.w3.org/2000/svg" xmlns:xlink="http://www.w3.org/1999/xlink"
	 x="0px" y="0px" viewBox="0 0 20 20" overflow="visible" xml:space="preserve">
<path fill="#5458F7" d="M4,0h12c2.2,0,4,1.8,4,4v12c0,2.2-1.8,4-4,4H4c-2.2,0-4-1.8-4-4V4C0,1.8,1.8,0,4,0z"/>
<g>
	<g>
		<path fill="#4A4DD9" d="M13.6,11.4c0.2,0.1,0.3,0.3,0.4,0.5c0,0.3-0.1,0.5-0.1,0.8c0,0.2-0.1,0.3-0.1,0.5c0,0.3-0.1,0.3-0.4,0.3
			c-2,0-3.9,0-5.9,0c-0.3,0-0.6,0-0.9,0c-0.1,0-0.1,0-0.2-0.1c0,0,0,0,0,0c0,0,0,0,0,0c-0.4-0.1-0.7-0.5-0.8-0.9
			c-0.1-0.2-0.1-0.3-0.1-0.5c0.1,0.1,0.2,0.3,0.4,0.4c0.2,0.2,0.5,0.3,0.8,0.3C7.1,13,7.8,13,8.4,13c0.4,0,0.7,0,1.1,0
			c0.4,0,0.7,0,1.1,0c0.4,0,0.8,0,1.3,0c0.2,0,0.5,0,0.7,0c0.1,0,0.2,0,0.2-0.1C13.1,12.4,13.4,11.9,13.6,11.4
			C13.6,11.5,13.6,11.4,13.6,11.4z"/>
		<path fill="#4A4DD9" d="M14.8,9.1c-0.2-0.1-0.5-0.2-0.7-0.3c0-0.4,0-0.7,0-1.1c0-0.3,0-0.6-0.1-0.9c0,0,0-0.1,0-0.1
			c0.1,0,0.1,0,0.1,0.1c0.2,0.1,0.3,0.3,0.4,0.6C14.8,7.9,14.8,8.5,14.8,9.1z"/>
		<path fill="#4A4DD9" d="M10.9,4.3c0.5,0,0.9,0,1.3,0.2c0.5,0.2,0.8,0.6,1,1.1c0,0,0,0,0,0.1c0,0.1,0,0.1,0,0.2
			c0,0.2,0.1,0.3,0.1,0.5c0,0.1,0,0.1-0.1,0.1c-0.3,0-0.3,0-0.3-0.3c0-0.7-0.4-1.2-1-1.5c-0.3-0.1-0.5-0.2-0.8-0.2
			C11,4.3,10.9,4.3,10.9,4.3z"/>
	</g>
	<path fill="#FFFFFF" d="M13.6,11.4c-0.2-0.1-0.3-0.1-0.5-0.1c-2,0-4.1,0-6.1,0c-0.6,0-1.3-0.1-1.8-0.4c-0.5-0.3-0.9-0.7-1.2-1.3
		C3.5,9,3.4,8.3,3.5,7.5c0.1-0.7,0.4-1.4,0.8-2C4.8,4.8,5.6,4.3,6.5,4c0.4-0.1,0.9-0.2,1.3-0.2c2.7,0,5.3,0,8,0
		c0.3,0,0.5,0.2,0.6,0.4c0.3,0.6,0.3,1.2,0,1.8c-0.2,0.3-0.4,0.4-0.8,0.4c-0.3,0-0.3,0-0.3,0.3c-0.1,0.4-0.2,0.8-0.3,1.2
		c0-0.1-0.1-0.2-0.1-0.4c-0.1-0.3-0.2-0.6-0.5-0.9c-0.2-0.2-0.5-0.3-0.8-0.3c-0.1,0-0.2,0-0.2-0.1c0-0.2-0.1-0.4-0.1-0.6
		c0,0,0,0,0-0.1c-0.2-0.5-0.5-0.9-1-1.1c-0.4-0.2-0.9-0.2-1.3-0.2c-0.5,0-0.9,0-1.4,0C8.7,4.4,8,5.1,7.9,6c0,0.1,0,0.1,0,0.2
		c0,0.2-0.1,0.3-0.3,0.3c-0.2,0-0.3,0-0.5,0.1c-0.6,0.2-1,0.8-1,1.4c0,0.4,0.2,0.6,0.5,0.7c0.1,0,0.3,0,0.4,0c2,0,4.1,0,6.1,0
		c0.3,0,0.7,0,1,0.1c0.2,0.1,0.5,0.2,0.7,0.3c0.3,0.2,0.6,0.4,0.9,0.6c0.3,0.3,0.5,0.6,0.6,1c0.3,0.7,0.3,1.4,0.2,2.2
		c-0.2,0.9-0.6,1.6-1.3,2.1c-0.7,0.6-1.5,1-2.4,1.1c-0.2,0-0.4,0-0.6,0c-2.7,0-5.3,0-8,0c-0.3,0-0.5-0.1-0.6-0.3
		c-0.4-0.6-0.4-1.3,0-1.9c0.1-0.2,0.3-0.3,0.6-0.3c0.1,0,0.3,0,0.4,0c0.1,0,0.2-0.1,0.2-0.2c0-0.2,0.1-0.3,0.1-0.5
		c0.1-0.3,0.1-0.6,0.2-0.9c0.1,0.2,0.1,0.4,0.2,0.6c0.1,0.4,0.3,0.7,0.7,0.9c0,0,0.1,0,0.1,0c0.1,0,0.1,0,0.2,0.1c0.3,0,0.6,0,0.9,0
		c2,0,3.9,0,5.9,0c0.3,0,0.4-0.1,0.4-0.3c0-0.2,0.1-0.3,0.1-0.5c0.1-0.3,0.1-0.5,0.1-0.8C13.9,11.7,13.8,11.5,13.6,11.4z"/>
	<path fill="#FFFFFF" d="M10.6,6.4c-0.5,0-1,0-1.4,0C9,6.4,9,6.4,9,6.3c0-0.5,0.3-0.9,0.8-0.9c0.6,0,1.1,0,1.7,0
		c0.4,0,0.8,0.4,0.7,0.8c0,0.1-0.1,0.2-0.2,0.2c0,0,0,0-0.1,0C11.5,6.4,11,6.4,10.6,6.4C10.6,6.4,10.6,6.4,10.6,6.4z"/>
</g>
</svg>
